# xmcd
#
# Track frame offsets:
# 150
# 15525
# 41250
# 55125
# 69225
# 81375
# 97425
# 113550
# 125400
# 136650
# 150075
# 166275
# 178650
#
# Disc length: 2572 seconds
#
#
# Revision: 0
# Processed by: cddbd v1.5.2PL0 Copyright (c) Steve Scherf et al.
# Submitted via: FreeRIP 2.95 
#
DISCID=9b0a0a0d
DTITLE=Edgard de Souza - O Mestiço
DYEAR=2005
DGENRE=Sertanejo
TTITLE0=O Mestiço
TTITLE1=Balduino é uma Parada
TTITLE2=O Sertanejo Chora
TTITLE3=Bahia, Meu Deus do Céu
TTITLE4=Deu Zebra em Curitiba
TTITLE5=Repartindo o Boi
TTITLE6=O Tropeiro
TTITLE7=Saudade da Bahia
TTITLE8=A Bolacha da Vizinha
TTITLE9=Mãe Sertaneja
TTITLE10=Prece a Nossa Senhora Aparecida
TTITLE11=Prece de São Francisco
TTITLE12=Obrigado Zé
EXTD=O Radialista das Mil Palavras\nNascido em 17/06/1971\nFalecido em 17/08/2007
EXTT0=
EXTT1=
EXTT2=
EXTT3=
EXTT4=
EXTT5=
EXTT6=
EXTT7=
EXTT8=
EXTT9=
EXTT10=
EXTT11=
EXTT12=
PLAYORDER=
